<svg xmlns="http://www.w3.org/2000/svg" width="1500" height="1500" viewBox="0 0 1500 1500">
<g fill="none" stroke="#000000" stroke-opacity="0.30" stroke-width="2" stroke-linejoin="round">
<path d="M483.06 760L531.66 590.44L532.38 590.44L581.70 760L596.10 760L654.42 576.40L643.26 576.40L589.26 746.68L588.54 746.68L539.22 576.40L524.82 576.40L476.22 746.68L475.50 746.68L421.50 576.40L410.34 576.40L468.66 760ZM807.78 695.56C807.78 718.96 781.50 753.52 741.18 753.52C702.30 753.52 692.94 729.04 692.94 706.72L692.94 576.40L682.14 576.40L682.14 706.72C682.14 744.16 707.34 762.88 738.66 762.88C774.66 762.88 795.54 744.52 807.06 725.08L807.78 725.08L807.78 760L818.58 760L818.58 576.40L807.78 576.40ZM1003.98 619.60L1003.26 619.60C992.46 591.16 966.18 573.52 933.78 573.52C893.46 573.52 855.66 601.60 855.66 662.08C855.66 724.72 893.46 752.80 933.78 752.80C966.18 752.80 992.82 734.44 1003.26 707.80L1003.98 707.80L1003.98 753.88C1003.98 796.72 977.34 816.52 937.02 816.52C895.26 816.52 875.46 795.64 871.50 773.68L860.70 773.68C863.58 801.40 889.50 825.88 936.30 825.88C983.82 825.88 1014.78 801.76 1014.78 749.92L1014.78 576.04L1003.98 576.04ZM936.30 743.44C898.50 743.44 867.18 718.24 867.18 662.08C867.18 608.08 898.50 582.88 936.30 582.88C968.34 582.88 1003.98 608.08 1003.98 662.08C1003.98 718.24 968.34 743.44 936.30 743.44Z"></path>
<rect x="1058.82" y="574.60" width="11" height="185.40" rx="5.50"></rect>
<circle cx="1064.32" cy="550.67" r="10.72"></circle>
<rect x="466.76" y="817.60" width="566.49" height="6.82"></rect>
<path d="M472.98 885.62L483.56 848.32L483.78 848.32L494.37 885.62L496.33 885.62L506.69 845.58L504.90 845.58L495.38 883.10L495.21 883.10L484.74 845.58L482.61 845.58L472.19 883.10L472.08 883.10L462.50 845.58L460.66 845.58L471.02 885.62Z M529.88 856.61C524.28 856.61 521.03 859.52 519.24 862.66L519.13 862.66L519.13 845.58L517.45 845.58L517.45 885.62L519.13 885.62L519.13 867.08C519.13 863.44 523.22 858.07 529.49 858.07C535.54 858.07 536.99 861.88 536.99 865.35L536.99 885.62L538.67 885.62L538.67 865.35C538.67 859.52 534.75 856.61 529.88 856.61Z M559.34 886.24C563.88 886.24 567.58 884.72 569.87 881.03L569.98 881.03C569.98 884.78 571.22 885.73 573.40 885.73C573.79 885.73 574.30 885.68 574.69 885.62L574.69 884.16C574.30 884.22 574.02 884.28 573.62 884.28C572 884.28 571.66 883.32 571.66 880.92L571.66 865.29C571.66 858.80 567.46 856.61 562.26 856.61C554.19 856.61 551.73 861.15 551.45 865.12L553.24 865.12C553.52 860.81 556.49 858.07 562.26 858.07C566.68 858.07 569.98 860.14 569.98 864.45C569.98 869.38 565.17 869.27 560.86 869.94C553.46 871.12 550.10 873.36 550.10 878.62C550.10 883.27 553.86 886.24 559.34 886.24ZM559.79 884.78C554.64 884.78 551.90 882.54 551.90 878.12C551.90 873.64 555.93 872.07 561.42 871.40C565.62 870.89 569.14 870.33 569.98 868.48L569.98 875.71C569.98 880.08 566.79 884.78 559.79 884.78Z M594.69 857.06L588.36 857.06L588.36 847.54L586.68 847.54L586.68 857.06L582.48 857.06L582.48 858.52L586.68 858.52L586.68 878.90C586.68 884.44 588.47 885.73 592.62 885.73C593.23 885.73 593.90 885.68 594.69 885.56L594.69 884.16C594.02 884.22 593.57 884.28 592.84 884.28C589.31 884.28 588.36 883.32 588.36 878.62L588.36 858.52L594.69 858.52Z  M639.22 886.24C649.25 886.24 653.62 881.03 653.62 871.73L653.62 845.58L651.82 845.58L651.82 871.73C651.82 880.47 647.68 884.67 639.22 884.67C630.77 884.67 626.62 880.47 626.62 871.73L626.62 845.58L624.83 845.58L624.83 871.73C624.83 881.03 629.20 886.24 639.22 886.24Z  M703.47 886.24C711.93 886.24 716.97 881.08 718.31 875.04L718.42 875.04L718.65 885.62L720.10 885.62L720.10 865.80L704.42 865.80L704.42 867.36L718.31 867.36C718.31 877.84 712.71 884.67 703.47 884.67C692.44 884.67 687.18 876.21 687.18 865.68C687.18 855.44 692.66 846.53 703.92 846.53C711.20 846.53 716.46 850.90 717.70 857.00L719.49 857.00C718.09 849.56 712.15 844.96 703.92 844.96C691.82 844.96 685.27 854.26 685.27 865.68C685.27 877.33 691.54 886.24 703.47 886.24Z M756.23 871.06C756.29 870.56 756.29 870.11 756.29 869.60C756.29 862.44 752.09 856.61 744.25 856.61C736.41 856.61 731.14 862.38 731.14 871.51C731.14 880.24 736.07 886.29 744.14 886.29C750.91 886.29 754.66 882.04 755.90 877.05L754.10 877.05C753.43 880.19 750.86 884.84 744.19 884.84C736.63 884.84 732.94 878.79 732.94 871.40L732.94 871.06ZM744.14 858.07C751.36 858.07 754.50 863.56 754.50 869.60L732.94 869.60C733.22 863.50 737.14 858.07 744.14 858.07Z M776.90 857.06L770.58 857.06L770.58 847.54L768.90 847.54L768.90 857.06L764.70 857.06L764.70 858.52L768.90 858.52L768.90 878.90C768.90 884.44 770.69 885.73 774.83 885.73C775.45 885.73 776.12 885.68 776.90 885.56L776.90 884.16C776.23 884.22 775.78 884.28 775.06 884.28C771.53 884.28 770.58 883.32 770.58 878.62L770.58 858.52L776.90 858.52Z M796.62 857.06L790.30 857.06L790.30 847.54L788.62 847.54L788.62 857.06L784.42 857.06L784.42 858.52L788.62 858.52L788.62 878.90C788.62 884.44 790.41 885.73 794.55 885.73C795.17 885.73 795.84 885.68 796.62 885.56L796.62 884.16C795.95 884.22 795.50 884.28 794.78 884.28C791.25 884.28 790.30 883.32 790.30 878.62L790.30 858.52L796.62 858.52Z M809.68 851.01L809.68 847.88L806.54 847.88L806.54 851.01ZM808.95 885.62L808.95 857.06L807.27 857.06L807.27 885.62Z M834.66 856.61C829.06 856.61 825.82 859.52 824.02 862.66L823.91 862.66L823.91 857.06L822.23 857.06L822.23 885.62L823.91 885.62L823.91 867.08C823.91 863.44 828.00 858.07 834.27 858.07C840.32 858.07 841.78 861.88 841.78 865.35L841.78 885.62L843.46 885.62L843.46 865.35C843.46 859.52 839.54 856.61 834.66 856.61Z M878.07 863.78L877.96 863.78C876.28 859.36 872.19 856.61 867.15 856.61C860.88 856.61 855.00 860.98 855.00 870.39C855.00 880.13 860.88 884.50 867.15 884.50C872.19 884.50 876.34 881.64 877.96 877.50L878.07 877.50L878.07 884.67C878.07 891.33 873.93 894.41 867.66 894.41C861.16 894.41 858.08 891.16 857.46 887.75L855.78 887.75C856.23 892.06 860.26 895.87 867.54 895.87C874.94 895.87 879.75 892.12 879.75 884.05L879.75 857.00L878.07 857.00ZM867.54 883.04C861.66 883.04 856.79 879.12 856.79 870.39C856.79 861.99 861.66 858.07 867.54 858.07C872.53 858.07 878.07 861.99 878.07 870.39C878.07 879.12 872.53 883.04 867.54 883.04Z  M914.60 885.62L914.60 845.58L912.81 845.58L912.81 885.62Z M941.26 856.61C935.66 856.61 932.42 859.52 930.62 862.66L930.51 862.66L930.51 857.06L928.83 857.06L928.83 885.62L930.51 885.62L930.51 867.08C930.51 863.44 934.60 858.07 940.87 858.07C946.92 858.07 948.38 861.88 948.38 865.35L948.38 885.62L950.06 885.62L950.06 865.35C950.06 859.52 946.14 856.61 941.26 856.61Z M972.18 857.06L965.86 857.06L965.86 847.54L964.18 847.54L964.18 857.06L959.98 857.06L959.98 858.52L964.18 858.52L964.18 878.90C964.18 884.44 965.97 885.73 970.11 885.73C970.73 885.73 971.40 885.68 972.18 885.56L972.18 884.16C971.51 884.22 971.06 884.28 970.34 884.28C966.81 884.28 965.86 883.32 965.86 878.62L965.86 858.52L972.18 858.52Z M994.37 886.29C1002.54 886.29 1007.53 880.24 1007.53 871.45C1007.53 862.66 1002.54 856.61 994.37 856.61C986.19 856.61 981.21 862.66 981.21 871.45C981.21 880.24 986.19 886.29 994.37 886.29ZM994.37 884.84C987.03 884.84 983 879.12 983 871.45C983 863.78 987.03 858.07 994.37 858.07C1001.70 858.07 1005.74 863.78 1005.74 871.45C1005.74 879.12 1001.70 884.84 994.37 884.84Z M1027.64 875.93C1027.64 869.83 1029.26 867.59 1032.68 864.68C1034.86 862.83 1039.23 859.58 1039.23 854.04C1039.23 848.38 1034.75 844.96 1028.65 844.96C1020.86 844.96 1016.50 850.68 1016.50 857.06L1018.34 857.06C1018.34 850.84 1022.32 846.64 1028.70 846.64C1034.25 846.64 1037.33 849.95 1037.33 854.20C1037.33 858.18 1034.64 860.64 1032.18 862.83C1027.53 866.92 1025.85 868.82 1025.85 875.93ZM1028.54 885.62L1028.54 882.48L1025.40 882.48L1025.40 885.62Z" stroke-width="1.10"></path>
</g>
<g fill="#ffffff" fill-opacity="0.65">
<path d="M483.06 760L531.66 590.44L532.38 590.44L581.70 760L596.10 760L654.42 576.40L643.26 576.40L589.26 746.68L588.54 746.68L539.22 576.40L524.82 576.40L476.22 746.68L475.50 746.68L421.50 576.40L410.34 576.40L468.66 760ZM807.78 695.56C807.78 718.96 781.50 753.52 741.18 753.52C702.30 753.52 692.94 729.04 692.94 706.72L692.94 576.40L682.14 576.40L682.14 706.72C682.14 744.16 707.34 762.88 738.66 762.88C774.66 762.88 795.54 744.52 807.06 725.08L807.78 725.08L807.78 760L818.58 760L818.58 576.40L807.78 576.40ZM1003.98 619.60L1003.26 619.60C992.46 591.16 966.18 573.52 933.78 573.52C893.46 573.52 855.66 601.60 855.66 662.08C855.66 724.72 893.46 752.80 933.78 752.80C966.18 752.80 992.82 734.44 1003.26 707.80L1003.98 707.80L1003.98 753.88C1003.98 796.72 977.34 816.52 937.02 816.52C895.26 816.52 875.46 795.64 871.50 773.68L860.70 773.68C863.58 801.40 889.50 825.88 936.30 825.88C983.82 825.88 1014.78 801.76 1014.78 749.92L1014.78 576.04L1003.98 576.04ZM936.30 743.44C898.50 743.44 867.18 718.24 867.18 662.08C867.18 608.08 898.50 582.88 936.30 582.88C968.34 582.88 1003.98 608.08 1003.98 662.08C1003.98 718.24 968.34 743.44 936.30 743.44Z"></path>
<rect x="1058.82" y="574.60" width="11" height="185.40" rx="5.50"></rect>
<circle cx="1064.32" cy="550.67" r="10.72"></circle>
<rect x="466.76" y="817.60" width="566.49" height="6.82"></rect>
<path d="M472.98 885.62L483.56 848.32L483.78 848.32L494.37 885.62L496.33 885.62L506.69 845.58L504.90 845.58L495.38 883.10L495.21 883.10L484.74 845.58L482.61 845.58L472.19 883.10L472.08 883.10L462.50 845.58L460.66 845.58L471.02 885.62Z M529.88 856.61C524.28 856.61 521.03 859.52 519.24 862.66L519.13 862.66L519.13 845.58L517.45 845.58L517.45 885.62L519.13 885.62L519.13 867.08C519.13 863.44 523.22 858.07 529.49 858.07C535.54 858.07 536.99 861.88 536.99 865.35L536.99 885.62L538.67 885.62L538.67 865.35C538.67 859.52 534.75 856.61 529.88 856.61Z M559.34 886.24C563.88 886.24 567.58 884.72 569.87 881.03L569.98 881.03C569.98 884.78 571.22 885.73 573.40 885.73C573.79 885.73 574.30 885.68 574.69 885.62L574.69 884.16C574.30 884.22 574.02 884.28 573.62 884.28C572 884.28 571.66 883.32 571.66 880.92L571.66 865.29C571.66 858.80 567.46 856.61 562.26 856.61C554.19 856.61 551.73 861.15 551.45 865.12L553.24 865.12C553.52 860.81 556.49 858.07 562.26 858.07C566.68 858.07 569.98 860.14 569.98 864.45C569.98 869.38 565.17 869.27 560.86 869.94C553.46 871.12 550.10 873.36 550.10 878.62C550.10 883.27 553.86 886.24 559.34 886.24ZM559.79 884.78C554.64 884.78 551.90 882.54 551.90 878.12C551.90 873.64 555.93 872.07 561.42 871.40C565.62 870.89 569.14 870.33 569.98 868.48L569.98 875.71C569.98 880.08 566.79 884.78 559.79 884.78Z M594.69 857.06L588.36 857.06L588.36 847.54L586.68 847.54L586.68 857.06L582.48 857.06L582.48 858.52L586.68 858.52L586.68 878.90C586.68 884.44 588.47 885.73 592.62 885.73C593.23 885.73 593.90 885.68 594.69 885.56L594.69 884.16C594.02 884.22 593.57 884.28 592.84 884.28C589.31 884.28 588.36 883.32 588.36 878.62L588.36 858.52L594.69 858.52Z  M639.22 886.24C649.25 886.24 653.62 881.03 653.62 871.73L653.62 845.58L651.82 845.58L651.82 871.73C651.82 880.47 647.68 884.67 639.22 884.67C630.77 884.67 626.62 880.47 626.62 871.73L626.62 845.58L624.83 845.58L624.83 871.73C624.83 881.03 629.20 886.24 639.22 886.24Z  M703.47 886.24C711.93 886.24 716.97 881.08 718.31 875.04L718.42 875.04L718.65 885.62L720.10 885.62L720.10 865.80L704.42 865.80L704.42 867.36L718.31 867.36C718.31 877.84 712.71 884.67 703.47 884.67C692.44 884.67 687.18 876.21 687.18 865.68C687.18 855.44 692.66 846.53 703.92 846.53C711.20 846.53 716.46 850.90 717.70 857.00L719.49 857.00C718.09 849.56 712.15 844.96 703.92 844.96C691.82 844.96 685.27 854.26 685.27 865.68C685.27 877.33 691.54 886.24 703.47 886.24Z M756.23 871.06C756.29 870.56 756.29 870.11 756.29 869.60C756.29 862.44 752.09 856.61 744.25 856.61C736.41 856.61 731.14 862.38 731.14 871.51C731.14 880.24 736.07 886.29 744.14 886.29C750.91 886.29 754.66 882.04 755.90 877.05L754.10 877.05C753.43 880.19 750.86 884.84 744.19 884.84C736.63 884.84 732.94 878.79 732.94 871.40L732.94 871.06ZM744.14 858.07C751.36 858.07 754.50 863.56 754.50 869.60L732.94 869.60C733.22 863.50 737.14 858.07 744.14 858.07Z M776.90 857.06L770.58 857.06L770.58 847.54L768.90 847.54L768.90 857.06L764.70 857.06L764.70 858.52L768.90 858.52L768.90 878.90C768.90 884.44 770.69 885.73 774.83 885.73C775.45 885.73 776.12 885.68 776.90 885.56L776.90 884.16C776.23 884.22 775.78 884.28 775.06 884.28C771.53 884.28 770.58 883.32 770.58 878.62L770.58 858.52L776.90 858.52Z M796.62 857.06L790.30 857.06L790.30 847.54L788.62 847.54L788.62 857.06L784.42 857.06L784.42 858.52L788.62 858.52L788.62 878.90C788.62 884.44 790.41 885.73 794.55 885.73C795.17 885.73 795.84 885.68 796.62 885.56L796.62 884.16C795.95 884.22 795.50 884.28 794.78 884.28C791.25 884.28 790.30 883.32 790.30 878.62L790.30 858.52L796.62 858.52Z M809.68 851.01L809.68 847.88L806.54 847.88L806.54 851.01ZM808.95 885.62L808.95 857.06L807.27 857.06L807.27 885.62Z M834.66 856.61C829.06 856.61 825.82 859.52 824.02 862.66L823.91 862.66L823.91 857.06L822.23 857.06L822.23 885.62L823.91 885.62L823.91 867.08C823.91 863.44 828.00 858.07 834.27 858.07C840.32 858.07 841.78 861.88 841.78 865.35L841.78 885.62L843.46 885.62L843.46 865.35C843.46 859.52 839.54 856.61 834.66 856.61Z M878.07 863.78L877.96 863.78C876.28 859.36 872.19 856.61 867.15 856.61C860.88 856.61 855.00 860.98 855.00 870.39C855.00 880.13 860.88 884.50 867.15 884.50C872.19 884.50 876.34 881.64 877.96 877.50L878.07 877.50L878.07 884.67C878.07 891.33 873.93 894.41 867.66 894.41C861.16 894.41 858.08 891.16 857.46 887.75L855.78 887.75C856.23 892.06 860.26 895.87 867.54 895.87C874.94 895.87 879.75 892.12 879.75 884.05L879.75 857.00L878.07 857.00ZM867.54 883.04C861.66 883.04 856.79 879.12 856.79 870.39C856.79 861.99 861.66 858.07 867.54 858.07C872.53 858.07 878.07 861.99 878.07 870.39C878.07 879.12 872.53 883.04 867.54 883.04Z  M914.60 885.62L914.60 845.58L912.81 845.58L912.81 885.62Z M941.26 856.61C935.66 856.61 932.42 859.52 930.62 862.66L930.51 862.66L930.51 857.06L928.83 857.06L928.83 885.62L930.51 885.62L930.51 867.08C930.51 863.44 934.60 858.07 940.87 858.07C946.92 858.07 948.38 861.88 948.38 865.35L948.38 885.62L950.06 885.62L950.06 865.35C950.06 859.52 946.14 856.61 941.26 856.61Z M972.18 857.06L965.86 857.06L965.86 847.54L964.18 847.54L964.18 857.06L959.98 857.06L959.98 858.52L964.18 858.52L964.18 878.90C964.18 884.44 965.97 885.73 970.11 885.73C970.73 885.73 971.40 885.68 972.18 885.56L972.18 884.16C971.51 884.22 971.06 884.28 970.34 884.28C966.81 884.28 965.86 883.32 965.86 878.62L965.86 858.52L972.18 858.52Z M994.37 886.29C1002.54 886.29 1007.53 880.24 1007.53 871.45C1007.53 862.66 1002.54 856.61 994.37 856.61C986.19 856.61 981.21 862.66 981.21 871.45C981.21 880.24 986.19 886.29 994.37 886.29ZM994.37 884.84C987.03 884.84 983 879.12 983 871.45C983 863.78 987.03 858.07 994.37 858.07C1001.70 858.07 1005.74 863.78 1005.74 871.45C1005.74 879.12 1001.70 884.84 994.37 884.84Z M1027.64 875.93C1027.64 869.83 1029.26 867.59 1032.68 864.68C1034.86 862.83 1039.23 859.58 1039.23 854.04C1039.23 848.38 1034.75 844.96 1028.65 844.96C1020.86 844.96 1016.50 850.68 1016.50 857.06L1018.34 857.06C1018.34 850.84 1022.32 846.64 1028.70 846.64C1034.25 846.64 1037.33 849.95 1037.33 854.20C1037.33 858.18 1034.64 860.64 1032.18 862.83C1027.53 866.92 1025.85 868.82 1025.85 875.93ZM1028.54 885.62L1028.54 882.48L1025.40 882.48L1025.40 885.62Z"></path>
</g>
</svg>